<svg xmlns="http://www.w3.org/2000/svg" viewBox="0 0 128.45 99.48"><title>logo</title><g id="Layer_2" data-name="Layer 2"><g id="Layer_1-2" data-name="Layer 1"><path d="M123.56,77.83c-2.36,7.08-6.85,10.13-9.31,11.32s-5.37,1.63-7.21,1a8,8,0,0,1-4.21-3.85,10.38,10.38,0,0,1-1.18-5.81,7.6,7.6,0,0,1,1.73-4.28,6.79,6.79,0,0,1,3-2,9.27,9.27,0,0,0-2.34,7,4.51,4.51,0,0,0,3.37,4.11,5.91,5.91,0,0,0,5.16-.81c1.76-1.24,3.16-3.52,4.18-6.78A32,32,0,0,0,118,71.33a17.46,17.46,0,0,0-2.77-10.55c-2.58-4.11-6.62-7.31-12-9.51a45.4,45.4,0,0,0-12.12-2.92,77.31,77.31,0,0,0-13.41-.21l-.54,0,.26.48c1.33,2.41,3.15,3.85,5.26,4.16,2.6.39,5.55-.91,8.52-3.75a45,45,0,0,1,11.42,2.71,21.91,21.91,0,0,1-12,10.41,20.2,20.2,0,0,1-14.19,0l-.57-.23.1.61c.31,1.95.57,4.53.86,7.27A140.6,140.6,0,0,0,79,85.15c1.25,5.67,2.95,9.07,5.18,10.4,1.1.65,2.53.27,3.81-1A8.56,8.56,0,0,0,90.24,90a8.71,8.71,0,0,0-.41-4.46c1.48,1.72,1.9,4.31,1.13,7.23-1,3.72-3.55,6.54-6.11,6.7-6.49.41-11.61-5-15.23-16.14C66.68,74.25,65.56,64,65,59.05c-.09-.85-.17-1.52-.23-2-.09-.65-.13-1-.49-1h-.15c-.36,0-.41.36-.49,1-.06.46-.13,1.13-.23,2-.54,4.93-1.66,15.2-4.61,24.27C55.2,94.44,50.07,99.87,43.58,99.46c-2.56-.16-5.13-3-6.11-6.7-.77-2.92-.34-5.51,1.13-7.23A8.7,8.7,0,0,0,38.2,90a8.56,8.56,0,0,0,2.25,4.55c1.28,1.29,2.71,1.66,3.81,1,2.23-1.32,3.93-4.73,5.18-10.4a140.32,140.32,0,0,0,2.15-15.35c.28-2.74.55-5.32.86-7.27l.1-.61-.57.23a20.2,20.2,0,0,1-14.19,0,21.91,21.91,0,0,1-12-10.41,45,45,0,0,1,11.42-2.71c3,2.84,5.92,4.14,8.52,3.75,2.11-.31,3.92-1.75,5.26-4.16l.26-.48-.54,0c-2-.13-3.88-.19-5.73-.19a70.09,70.09,0,0,0-7.52.38h-.16a45.37,45.37,0,0,0-12.12,2.92C13.49,56.05,9.93,65.06,10.44,71.33a31.9,31.9,0,0,0,1.26,6.41c1,3.26,2.42,5.54,4.18,6.78a5.91,5.91,0,0,0,5.16.81,4.51,4.51,0,0,0,3.37-4.11,9.28,9.28,0,0,0-2.34-7,6.8,6.8,0,0,1,3,2,7.61,7.61,0,0,1,1.73,4.28,10.39,10.39,0,0,1-1.18,5.81A8,8,0,0,1,21.4,90.1c-1.84.67-4.6.3-7.21-1s-7-4.24-9.31-11.32a38.72,38.72,0,0,1-1.76-13C3.27,61,4.1,55.74,7.24,52A38,38,0,0,1,21.17,42a55.84,55.84,0,0,1,9.12-3.1,64,64,0,0,1,18-1.77l.63,0-.32-.55c-4.16-7.13-6.8-13.27-7.83-18.26-.93-4.47-.59-8.15,1-10.92s4.49-4.77,8.78-6A51.3,51.3,0,0,1,64.19,0h.06A51.3,51.3,0,0,1,77.88,1.46c4.29,1.21,7.16,3.17,8.78,6s1.93,6.44,1,10.92c-1,5-3.67,11.13-7.83,18.26l-.32.55.63,0A64,64,0,0,1,97.7,38.8l.69.17a55.61,55.61,0,0,1,8.56,2.89l.63.28A37.77,37.77,0,0,1,121.2,52c3.14,3.78,4,9.07,4.12,12.85A38.72,38.72,0,0,1,123.56,77.83Z"/><path d="M29.69,38.35l-8.48,2.88L20.72,40c-.92-2.31-1.79-4.49-2.58-6.29C15,26.62,12.37,21.13,9.23,20.26a3.34,3.34,0,0,0-2.92.61,5.69,5.69,0,0,0-2,6.6,5.12,5.12,0,0,0,4.83,3.2c-2.86,1.16-5.67-.35-7.34-2.62-2.34-3.16-2.69-8,1.17-11a9.37,9.37,0,0,1,8.33-2.14c3.33.83,6.73,3.57,10.11,8.15a61.73,61.73,0,0,1,6.42,11.28C28.39,35.73,29,37.07,29.69,38.35Z"/><path d="M126.69,28.05c-1.68,2.26-4.48,3.77-7.34,2.62a5.12,5.12,0,0,0,4.83-3.2,5.69,5.69,0,0,0-2-6.6,3.34,3.34,0,0,0-2.91-.61c-3.14.87-5.78,6.36-8.91,13.45-.8,1.8-1.67,4-2.6,6.32-.12.3-.31.76-.49,1.19a56.24,56.24,0,0,0-8.49-2.88c.65-1.27,1.41-2.78,1.94-4A61.73,61.73,0,0,1,107.08,23c3.38-4.58,6.78-7.32,10.11-8.15A9.37,9.37,0,0,1,125.52,17C129.39,20.09,129,24.89,126.69,28.05Z"/></g></g></svg>