<svg xmlns="http://www.w3.org/2000/svg" viewBox="0 0 44.78 37.15"><defs><style>.cls-1{fill:#fff;}</style></defs><title>cart</title><g id="Layer_2" data-name="Layer 2"><g id="Layer_1-2" data-name="Layer 1"><path class="cls-1" d="M40.47,30.62H16.57a1.46,1.46,0,0,1-1.43-1.15L10.85,9.78V9.73L9.73,4.61,1.18,2.9A1.46,1.46,0,0,1,1.75,0l9.49,1.9a1.46,1.46,0,0,1,1.14,1.12L13.46,8H43.31a1.46,1.46,0,0,1,1.45,1.67L41.92,29.37A1.46,1.46,0,0,1,40.47,30.62ZM17.75,27.69H39.2l2.42-16.79H14.09Z"/><circle class="cls-1" cx="18.33" cy="34.67" r="2.48"/><path class="cls-1" d="M18.33,32.35A2.32,2.32,0,1,1,16,34.67a2.32,2.32,0,0,1,2.32-2.32m0-.16a2.48,2.48,0,1,0,2.48,2.48,2.48,2.48,0,0,0-2.48-2.48Z"/><circle class="cls-1" cx="38.83" cy="34.67" r="2.48"/><path class="cls-1" d="M38.83,32.35a2.32,2.32,0,1,1-2.32,2.32,2.32,2.32,0,0,1,2.32-2.32m0-.16a2.48,2.48,0,1,0,2.48,2.48,2.48,2.48,0,0,0-2.48-2.48Z"/></g></g></svg>