<svg xmlns="http://www.w3.org/2000/svg" viewBox="0 0 26 26"><defs><style>.cls-1{fill:#fff;}</style></defs><title>instagram</title><g id="Layer_2" data-name="Layer 2"><g id="Layer_1-2" data-name="Layer 1"><path class="cls-1" d="M22.19,0H3.81A3.81,3.81,0,0,0,0,3.81V22.19A3.81,3.81,0,0,0,3.81,26H22.19A3.81,3.81,0,0,0,26,22.19V3.81A3.81,3.81,0,0,0,22.19,0ZM13.05,19.8a6.86,6.86,0,1,1,6.86-6.86A6.86,6.86,0,0,1,13.05,19.8ZM20.67,7.62A2.29,2.29,0,1,1,23,5.33,2.29,2.29,0,0,1,20.67,7.62Z"/><path class="cls-1" d="M20.67,4.57a.76.76,0,1,0,.76.76A.76.76,0,0,0,20.67,4.57Z"/><path class="cls-1" d="M13.05,7.62a5.33,5.33,0,1,0,5.33,5.33A5.34,5.34,0,0,0,13.05,7.62Z"/></g></g></svg>