<svg xmlns="http://www.w3.org/2000/svg" viewBox="0 0 26 26"><defs><style>.cls-1{fill:#fff;}</style></defs><title>twitter</title><g id="Layer_2" data-name="Layer 2"><g id="Layer_1-2" data-name="Layer 1"><g id="post-twitter"><path class="cls-1" d="M23.4,0H2.6A2.61,2.61,0,0,0,0,2.6V23.4A2.61,2.61,0,0,0,2.6,26H23.4A2.61,2.61,0,0,0,26,23.4V2.6A2.61,2.61,0,0,0,23.4,0Zm-3,9.49c-.13,6-3.9,10.14-9.62,10.4A9.46,9.46,0,0,1,5.2,18.33a6.9,6.9,0,0,0,5.07-1.43A3.51,3.51,0,0,1,7,14.43a5.24,5.24,0,0,0,1.43,0,3.54,3.54,0,0,1-2.73-3.51,2.62,2.62,0,0,0,1.43.39,3.84,3.84,0,0,1-1-4.68,10.3,10.3,0,0,0,7.15,3.64c-.91-3.64,4-5.59,6-3.12a8.76,8.76,0,0,0,2.21-.78A3.68,3.68,0,0,1,20,8.32a7.45,7.45,0,0,0,1.82-.52C21.71,8.45,21.06,9,20.41,9.49Z"/></g></g></g></svg>